<svg width="167" height="167" viewBox="0 0 167 167" fill="none" xmlns="http://www.w3.org/2000/svg">
<path d="M136.648 88.418L127.256 107.012" stroke="#2522A7" stroke-width="0.754" stroke-linecap="round" stroke-linejoin="round"/>
<path d="M127.254 107.012C126.403 108.694 124.919 109.97 123.128 110.559C121.337 111.147 119.386 111.001 117.703 110.151" stroke="#2522A7" stroke-width="0.754" stroke-linecap="round" stroke-linejoin="round"/>
<path d="M117.705 110.151L108.308 105.403" stroke="#2522A7" stroke-width="0.754" stroke-linecap="round" stroke-linejoin="round"/>
<path d="M54.4287 64.4628L73.2413 27.2285" stroke="#2522A7" stroke-width="0.754" stroke-linecap="round" stroke-linejoin="round"/>
<path d="M73.2412 27.2286C73.662 26.3953 74.2429 25.6531 74.9506 25.0443C75.6583 24.4356 76.4791 23.9722 77.3659 23.6807C78.2528 23.3893 79.1883 23.2754 80.1192 23.3456C81.0501 23.4157 81.958 23.6686 82.7911 24.0898" stroke="#2522A7" stroke-width="0.754" stroke-linecap="round" stroke-linejoin="round"/>
<path d="M82.791 24.0896L145.244 55.6434" stroke="#2522A7" stroke-width="0.754" stroke-linecap="round" stroke-linejoin="round"/>
<path d="M145.244 55.6433C146.927 56.4935 148.203 57.9774 148.792 59.7685C149.381 61.5596 149.234 63.5112 148.384 65.194" stroke="#2522A7" stroke-width="0.754" stroke-linecap="round" stroke-linejoin="round"/>
<path d="M148.384 65.1941L142.599 76.6436" stroke="#2522A7" stroke-width="0.754" stroke-linecap="round" stroke-linejoin="round"/>
<path d="M77.8052 23.5227L100.248 67.1197L148.658 59.3217" stroke="#2522A7" stroke-width="0.754" stroke-linecap="round" stroke-linejoin="round"/>
<path d="M130.498 74.7742C130.799 79.5104 131.142 82.9648 128.791 87.4036C128.649 87.6742 128.5 87.948 128.348 88.2244L106.462 88.4323C110.942 95.4238 109.615 113.961 107.896 125.697C103.572 126.929 98.9852 126.884 94.6867 125.569C95.0558 120.759 95.0207 113.545 94.913 108.034L98.8901 98.4098L80.5585 106.356C57.5267 116.32 51.3335 98.687 51.3335 98.687C54.5988 96.661 57.7404 94.4421 60.7414 92.0421C62.1155 92.8306 63.7227 93.1122 65.283 92.8378C71.8995 91.4692 84.4329 84.9813 87.6961 81.5002C88.9956 80.1334 90.1134 78.6047 91.0219 76.9519L97.7946 74.0678C100.073 73.0968 102.551 72.6865 105.021 72.8713L130.496 74.7709L130.498 74.7742Z" fill="#E6E7E8"/>
<path d="M73.7213 108.668C70.1102 112.642 65.7354 115.848 60.8579 118.094C55.9804 120.34 50.7003 121.581 45.3329 121.741C39.9654 121.902 34.6207 120.979 29.6177 119.029C24.6147 117.078 20.0561 114.139 16.214 110.387C12.3719 106.636 9.32505 102.149 7.25544 97.1938C5.18583 92.2388 4.13586 86.9176 4.16821 81.5479C4.20055 76.1781 5.31456 70.8699 7.44372 65.9402C9.57287 61.0105 12.6735 56.5604 16.5606 52.8555" stroke="#2522A7" stroke-width="0.754" stroke-linecap="round" stroke-linejoin="round"/>
<path d="M51.4051 98.7462C46.0412 95.0246 42.3149 89.3818 40.9985 82.9873" stroke="black" stroke-width="0.754" stroke-linecap="round" stroke-linejoin="round"/>
<path d="M40.9995 82.9873H40.9951" stroke="black" stroke-width="0.754" stroke-linecap="round" stroke-linejoin="round"/>
<path d="M40.9988 82.9871C40.2868 79.8605 40.0414 76.6457 40.2706 73.4473C40.6714 67.791 42.7197 62.6541 44.52 57.3685C44.9333 56.1552 45.9169 53.1718 46.2459 51.9235C46.5482 50.7712 46.6968 49.947 47.1419 48.5676C45.2155 46.7515 47.5059 44.5596 48.5447 46.3273C48.6824 46.5912 48.8682 46.8271 49.0924 47.0228" stroke="black" stroke-width="0.754" stroke-linecap="round" stroke-linejoin="round"/>
<path d="M49.0889 47.0229H49.0932" stroke="black" stroke-width="0.754" stroke-linecap="round" stroke-linejoin="round"/>
<path d="M49.091 47.0229C49.2755 47.2074 49.4968 46.9978 49.6179 46.8099C52.0653 43.2395 55.4879 43.571 55.6708 48.0123V48.7689C55.4846 53.8356 52.0536 62.2549 46.7446 55.3286" stroke="black" stroke-width="0.754" stroke-linecap="round" stroke-linejoin="round"/>
<path d="M46.748 55.3286L48.4389 59.5863" stroke="black" stroke-width="0.754" stroke-linecap="round" stroke-linejoin="round"/>
<path d="M48.4384 60.9082C48.3954 59.7102 48.4955 58.5113 48.7365 57.3369" stroke="black" stroke-width="0.754" stroke-linecap="round" stroke-linejoin="round"/>
<path d="M43.5762 60.0806C44.1289 60.5269 44.7785 60.8375 45.4729 60.9876C46.1674 61.1376 46.8873 61.123 47.575 60.9448C48.4985 60.8399 49.4336 60.9578 50.3021 61.2888C52.3288 62.1373 54.0294 63.6143 55.1534 65.5022C57.4761 69.3661 60.0128 73.0971 62.7519 76.6779C60.2652 80.2807 56.8872 83.1777 52.9474 85.0863" stroke="black" stroke-width="0.754" stroke-linecap="round" stroke-linejoin="round"/>
<path d="M82.832 85.1773C82.832 85.1773 100.661 79.3765 106.463 88.4338" stroke="black" stroke-width="0.754" stroke-linecap="round" stroke-linejoin="round"/>
<path d="M130.624 76.01C132.78 76.0893 137.064 76.0768 139.686 76.0259C137.867 80.3525 135.295 84.3216 132.088 87.7484C131.285 87.624 129.565 87.4478 128.791 87.4028" stroke="black" stroke-width="0.754" stroke-linecap="round" stroke-linejoin="round"/>
<path d="M156.145 76.0959C157.057 76.2295 157.629 76.4249 157.702 76.708C158.172 78.5066 148.707 82.8828 144.463 86.3038C143.229 87.3146 141.847 88.1293 140.364 88.7195C139.285 88.9165 138.178 88.8938 137.108 88.6527C138.683 87.9733 140.158 87.0825 141.492 86.0049C145.657 82.6482 154.251 78.4807 156.146 76.0976L156.145 76.0959Z" stroke="black" stroke-width="0.754" stroke-linecap="round" stroke-linejoin="round"/>
<path d="M139.686 76.0258C144.388 75.934 152.731 75.595 156.146 76.096C154.251 78.479 145.656 82.6465 141.492 86.0032C140.159 87.0812 138.685 87.9725 137.111 88.6527C135.599 88.4147 133.839 88.0206 132.087 87.7484C135.294 84.3216 137.867 80.3524 139.685 76.0258H139.686Z" stroke="black" stroke-width="0.754" stroke-linecap="round" stroke-linejoin="round"/>
<path d="M139.686 76.0258C144.388 75.934 152.731 75.595 156.146 76.096C154.251 78.479 145.656 82.6465 141.492 86.0032C140.159 87.0812 138.685 87.9725 137.111 88.6527C135.599 88.4147 133.839 88.0206 132.087 87.7484C135.294 84.3216 137.867 80.3524 139.685 76.0258H139.686Z" fill="black"/>
<path d="M107.228 125.885C107.133 129.047 107.198 132.21 107.423 135.365C103.032 133.705 98.9721 131.279 95.4312 128.198C95.5263 127.392 95.5931 126.586 95.6107 125.811" stroke="black" stroke-width="0.754" stroke-linecap="round" stroke-linejoin="round"/>
<path d="M107.951 151.817C107.851 152.736 107.677 153.312 107.396 153.396C105.616 153.931 100.898 144.629 97.3253 140.514C96.2706 139.318 95.406 137.966 94.7618 136.507C94.5259 135.436 94.5083 134.328 94.71 133.25C95.4473 134.798 96.3917 136.239 97.5173 137.532C101.023 141.573 105.501 150.01 107.951 151.817Z" stroke="black" stroke-width="0.754" stroke-linecap="round" stroke-linejoin="round"/>
<path d="M107.423 135.365C107.686 140.061 108.327 148.386 107.951 151.815C105.501 150.008 101.021 141.571 97.5138 137.531C96.3882 136.238 95.4438 134.797 94.7065 133.249C94.8894 131.73 95.2201 129.956 95.428 128.196C98.969 131.276 103.029 133.703 107.419 135.363L107.423 135.365Z" stroke="black" stroke-width="0.754" stroke-linecap="round" stroke-linejoin="round"/>
<path d="M107.423 135.365C107.686 140.061 108.327 148.386 107.951 151.815C105.501 150.008 101.021 141.571 97.5138 137.531C96.3882 136.238 95.4438 134.797 94.7065 133.249C94.8894 131.73 95.2201 129.956 95.428 128.196C98.969 131.276 103.029 133.703 107.419 135.363L107.423 135.365Z" fill="black"/>
<path d="M60.7435 92.0703C60.316 92.431 59.8534 92.8034 59.3733 93.1792C52.1088 89.6137 47.7317 80.144 47.5806 79.8125C48.9426 81.7916 50.4055 83.6993 51.9635 85.5281C52.2975 85.3853 52.624 85.2367 52.9471 85.083C55.22 87.7425 58.0314 90.5857 60.7435 92.0703Z" stroke="black" stroke-width="0.754" stroke-linecap="round" stroke-linejoin="round"/>
<path d="M60.7435 92.0703C60.316 92.431 59.8534 92.8034 59.3733 93.1792C52.1088 89.6137 47.7317 80.144 47.5806 79.8125C48.9426 81.7916 50.4055 83.6993 51.9635 85.5281C52.2975 85.3853 52.624 85.2367 52.9471 85.083C55.22 87.7425 58.0314 90.5857 60.7435 92.0703Z" fill="black"/>
<path d="M91.0243 76.9552C93.42 72.5347 93.0016 68.2269 92.6259 62.336C92.4163 59.0653 92.0122 59.1521 91.5203 60.666C90.7864 62.9355 89.8553 68.4215 89.0988 70.6025C89.0294 70.8245 88.8809 71.0132 88.6813 71.1327C88.0968 71.4584 87.7244 70.7369 87.4288 69.7132C87.1115 68.6135 86.8869 67.1639 86.5938 66.2822C86.082 64.7366 85.0199 63.3396 84.8537 67.8478C84.7552 70.4964 84.746 75.048 81.8711 76.7272" stroke="black" stroke-width="0.754" stroke-linecap="round" stroke-linejoin="round"/>
<path d="M81.8733 76.7246L81.8057 76.766" stroke="black" stroke-width="0.754" stroke-linecap="round" stroke-linejoin="round"/>
<path d="M81.8056 76.7656C79.586 78.0242 77.2743 79.1128 74.8902 80.0221C72.4003 80.998 69.7922 81.6398 67.1339 81.9309C65.696 82.0069 63.7488 80.3678 61.9185 77.8069" stroke="black" stroke-width="0.754" stroke-linecap="round" stroke-linejoin="round"/>
<path d="M87.3984 69.598L90.5447 55.7812" stroke="black" stroke-width="0.754" stroke-linecap="round" stroke-linejoin="round"/>
<path d="M90.5449 55.7779C90.6035 55.5217 90.7613 55.2992 90.9838 55.1592C91.2062 55.0192 91.4752 54.9733 91.7315 55.0314" stroke="black" stroke-width="0.754" stroke-linecap="round" stroke-linejoin="round"/>
<path d="M91.7314 55.0347C91.9876 55.0932 92.2101 55.251 92.3499 55.4735C92.4898 55.696 92.5355 55.965 92.4771 56.2212" stroke="black" stroke-width="0.754" stroke-linecap="round" stroke-linejoin="round"/>
<path d="M92.477 56.2212L89.8066 67.9496" stroke="black" stroke-width="0.754" stroke-linecap="round" stroke-linejoin="round"/>
<path d="M98.8902 98.4131L94.9131 108.035" stroke="black" stroke-width="0.754" stroke-linecap="round" stroke-linejoin="round"/>
<path d="M94.9129 108.035C94.8294 103.569 94.6958 100.234 94.6958 100.234L98.89 98.4131" stroke="black" stroke-width="0.754" stroke-linecap="round" stroke-linejoin="round"/>
<path d="M98.89 98.4131L94.9129 108.035C94.8294 103.569 94.6958 100.234 94.6958 100.234L98.89 98.4131Z" fill="black"/>
<path d="M130.498 74.7742C130.994 79.3349 131.142 82.9647 128.791 87.4036C128.648 87.6741 128.5 87.948 128.348 88.2244" stroke="black" stroke-width="0.754" stroke-linecap="round" stroke-linejoin="round"/>
<path d="M128.348 88.2244L106.462 88.4323" stroke="black" stroke-width="0.754" stroke-linecap="round" stroke-linejoin="round"/>
<path d="M106.462 88.4321C110.942 95.4236 109.615 113.961 107.896 125.697C103.572 126.924 98.9863 126.879 94.687 125.569C95.0561 120.758 95.021 113.545 94.9133 108.034" stroke="black" stroke-width="0.754" stroke-linecap="round" stroke-linejoin="round"/>
<path d="M94.9131 108.037L98.8902 98.4131" stroke="black" stroke-width="0.754" stroke-linecap="round" stroke-linejoin="round"/>
<path d="M98.8901 98.4129L80.5585 106.36C57.5267 116.323 51.3335 98.6901 51.3335 98.6901C51.3335 98.6901 55.7732 95.9572 59.3403 93.1791C59.8313 92.795 60.3047 92.4393 60.7414 92.0702C62.1181 92.8517 63.7256 93.1245 65.283 92.841C71.8995 91.4724 84.4329 84.9844 87.6961 81.5033C88.9956 80.1365 90.1134 78.6078 91.0219 76.9551" stroke="black" stroke-width="0.754" stroke-linecap="round" stroke-linejoin="round"/>
<path d="M91.0239 76.9551L98.4621 73.7871" stroke="black" stroke-width="0.754" stroke-linecap="round" stroke-linejoin="round"/>
<path d="M98.4624 73.7873C100.304 73.0031 102.306 72.6715 104.302 72.8203" stroke="black" stroke-width="0.754" stroke-linecap="round" stroke-linejoin="round"/>
<path d="M104.302 72.8203L130.498 74.7742" stroke="black" stroke-width="0.754" stroke-linecap="round" stroke-linejoin="round"/>
<path d="M51.9551 43.4382C51.9551 43.4382 49.1813 38.237 42.6424 41.4075C36.1035 44.5779 37.3677 57.3368 37.3677 57.3368C37.3677 57.3368 31.5678 60.1123 28.4749 64.7883C23.6795 72.0403 26.0977 82.9855 40.9999 82.9863C40.2886 79.8599 40.0429 76.6455 40.271 73.4472C40.6634 67.8218 42.72 62.6507 44.5203 57.3685C44.9378 56.1552 45.9172 53.1709 46.2462 51.9226C46.5477 50.7703 46.698 49.9487 47.1413 48.5684C45.2158 46.7523 47.5054 44.5604 48.545 46.3264C48.6791 46.5927 48.8654 46.8292 49.0927 47.022L49.2155 47.0804L49.2355 47.0537C49.9787 47.2099 54.0076 49.1988 56.6103 47.8094C56.6103 47.8094 56.7656 43.4373 51.9601 43.4373L51.9551 43.4382Z" fill="black"/>
<path d="M51.9551 43.4382C51.9551 43.4382 49.1813 38.237 42.6424 41.4075C36.1035 44.5779 37.3677 57.3368 37.3677 57.3368C37.3677 57.3368 31.5678 60.1123 28.4749 64.7883C23.6795 72.0403 26.0977 82.9855 40.9999 82.9863C40.2886 79.8599 40.0429 76.6455 40.271 73.4472C40.6634 67.8218 42.72 62.6507 44.5203 57.3685C44.9378 56.1552 45.9172 53.1709 46.2462 51.9226C46.5477 50.7703 46.698 49.9487 47.1413 48.5684C45.2158 46.7523 47.5054 44.5604 48.545 46.3264C48.6791 46.5927 48.8654 46.8292 49.0927 47.022" stroke="black" stroke-width="0.754" stroke-linecap="round" stroke-linejoin="round"/>
<path d="M49.0899 47.0222L49.0879 47.0242" stroke="black" stroke-width="0.754" stroke-linecap="round" stroke-linejoin="round"/>
<path d="M49.0879 47.023C49.1296 47.0505 53.5192 48.7381 56.6029 47.8096C56.6029 47.8096 56.7582 43.4375 51.9528 43.4375" stroke="black" stroke-width="0.754" stroke-linecap="round" stroke-linejoin="round"/>
<path d="M40.9961 82.9863H40.999" stroke="black" stroke-width="0.754" stroke-linecap="round" stroke-linejoin="round"/>
<path d="M16.5605 52.8555C14.2619 55.8264 12.251 59.0093 10.5552 62.3611" stroke="#2522A7" stroke-width="0.754" stroke-linecap="round" stroke-linejoin="round"/>
<path d="M10.5552 62.3611L14.4438 65.4406" stroke="#2522A7" stroke-width="0.754" stroke-linecap="round" stroke-linejoin="round"/>
<path d="M14.4453 65.4406C14.5709 65.5412 14.7188 65.6101 14.8766 65.6414C15.0344 65.6727 15.1974 65.6656 15.3519 65.6207C15.5063 65.5757 15.6477 65.4942 15.764 65.3831C15.8803 65.2719 15.9682 65.1344 16.0201 64.9822" stroke="#2522A7" stroke-width="0.754" stroke-linecap="round" stroke-linejoin="round"/>
<path d="M16.0186 64.982L22.1349 47.3459" stroke="#2522A7" stroke-width="0.754" stroke-linecap="round" stroke-linejoin="round"/>
<path d="M22.1349 47.3444C22.2058 47.147 22.2129 46.9323 22.1553 46.7306C22.0978 46.5289 21.9783 46.3504 21.8139 46.2201C21.6495 46.0899 21.4483 46.0146 21.2388 46.0048C21.0293 45.9949 20.8219 46.0511 20.646 46.1654C15.0219 48.8761 9.73111 52.2299 4.87957 56.1595C4.74333 56.2451 4.6297 56.3622 4.5483 56.501C4.46691 56.6398 4.42013 56.7962 4.41194 56.9569C4.40375 57.1176 4.43438 57.2779 4.50125 57.4243C4.56811 57.5706 4.66924 57.6987 4.79607 57.7978" stroke="#2522A7" stroke-width="0.754" stroke-linecap="round" stroke-linejoin="round"/>
<path d="M4.79395 57.7979L8.41701 60.6677" stroke="#2522A7" stroke-width="0.754" stroke-linecap="round" stroke-linejoin="round"/>
<path d="M8.41699 60.6677C10.603 57.802 13.5714 55.3713 16.5607 52.8555" stroke="#2522A7" stroke-width="0.754" stroke-linecap="round" stroke-linejoin="round"/>
<path d="M122.023 19.8971C121.517 16.5997 125.048 14.3619 128.207 15.9309C129.247 16.3923 130.063 17.2471 130.474 18.3082C130.886 19.3694 130.861 20.5504 130.404 21.593C128.92 24.5823 124.354 24.4554 122.57 21.4177" stroke="#2522A7" stroke-width="0.754" stroke-linecap="round" stroke-linejoin="round"/>
<path d="M122.571 21.4177L120.547 21.2683L122.024 19.8972" stroke="#2522A7" stroke-width="0.754" stroke-linecap="round" stroke-linejoin="round"/>
<path d="M148.751 113.142C149.234 112.177 149.317 111.059 148.982 110.033C148.647 109.006 147.921 108.153 146.961 107.658C146.001 107.162 144.885 107.065 143.854 107.388C142.823 107.71 141.961 108.425 141.454 109.378C141.454 109.378 138.777 114.61 136.519 114.448" stroke="#2522A7" stroke-width="0.754" stroke-linecap="round" stroke-linejoin="round"/>
<path d="M136.519 114.446L147.722 120.225" stroke="#2522A7" stroke-width="0.754" stroke-linecap="round" stroke-linejoin="round"/>
<path d="M147.722 120.225C146.282 118.479 148.751 113.14 148.751 113.14" stroke="#2522A7" stroke-width="0.754" stroke-linecap="round" stroke-linejoin="round"/>
<path d="M143.967 118.288C143.714 118.777 143.277 119.146 142.753 119.314C142.228 119.481 141.658 119.434 141.169 119.181C140.679 118.929 140.31 118.492 140.142 117.967C139.975 117.442 140.023 116.873 140.275 116.383" stroke="#2522A7" stroke-width="0.754" stroke-linecap="round" stroke-linejoin="round"/>
<path d="M159.204 46.9946L156.236 57.2033" stroke="#2522A7" stroke-width="0.754" stroke-linecap="round" stroke-linejoin="round"/>
<path d="M162.825 53.5835L152.615 50.6143" stroke="#2522A7" stroke-width="0.754" stroke-linecap="round" stroke-linejoin="round"/>
<path d="M94.9277 120.339C99.4354 121.086 104.028 121.17 108.56 120.59" stroke="black" stroke-width="0.754" stroke-linecap="round" stroke-linejoin="round"/>
<path d="M124.429 74.355C125.147 79.1124 124.376 83.9754 122.222 88.2778" stroke="black" stroke-width="0.754" stroke-linecap="round" stroke-linejoin="round"/>
<path d="M48.4389 59.5864L46.748 55.3279C47.3139 56.0867 47.9831 56.7627 48.7362 57.3361C48.5822 58.0779 48.4828 58.83 48.4389 59.5864Z" fill="black"/>
<path d="M70.8916 131.63C71.0008 132.167 70.9481 132.725 70.7403 133.232C70.5324 133.739 70.1786 134.174 69.7238 134.48C69.269 134.786 68.7336 134.95 68.1854 134.952C67.6372 134.953 67.1009 134.792 66.6443 134.489C66.1878 134.185 65.8315 133.753 65.6207 133.247C65.4099 132.741 65.354 132.184 65.4601 131.646C65.5662 131.108 65.8295 130.614 66.2167 130.226C66.6039 129.838 67.0975 129.573 67.6351 129.466C68.3538 129.322 69.1002 129.469 69.7107 129.875C70.3211 130.281 70.7458 130.912 70.8916 131.63V131.63Z" stroke="#2522A7" stroke-width="0.754" stroke-linecap="round" stroke-linejoin="round"/>
<path d="M70.8916 131.63C71.0008 132.167 70.9481 132.725 70.7403 133.232C70.5324 133.739 70.1786 134.174 69.7238 134.48C69.269 134.786 68.7336 134.95 68.1854 134.952C67.6372 134.953 67.1009 134.792 66.6443 134.489C66.1878 134.185 65.8315 133.753 65.6207 133.247C65.4099 132.741 65.354 132.184 65.4601 131.646C65.5662 131.108 65.8295 130.614 66.2167 130.226C66.6039 129.838 67.0975 129.573 67.6351 129.466C68.3538 129.322 69.1002 129.469 69.7107 129.875C70.3211 130.281 70.7458 130.912 70.8916 131.63Z" fill="#2522A7"/>
<path d="M69.6392 122.948C70.704 121.954 72.0398 121.297 73.4775 121.062C74.9153 120.827 76.3905 121.023 77.7167 121.627C79.0428 122.23 80.1603 123.213 80.9278 124.451C81.6954 125.689 82.0785 127.127 82.0287 128.583C81.979 130.04 81.4986 131.448 80.6484 132.631C79.7981 133.814 78.6162 134.718 77.2519 135.23C75.8877 135.741 74.4026 135.836 72.9842 135.504C71.5658 135.171 70.278 134.425 69.2835 133.36C68.6231 132.653 68.1084 131.823 67.7689 130.917C67.4293 130.011 67.2716 129.047 67.3046 128.08C67.3376 127.114 67.5608 126.163 67.9614 125.282C68.3619 124.401 68.9321 123.608 69.6392 122.948V122.948Z" stroke="#2522A7" stroke-width="0.754" stroke-linecap="round" stroke-linejoin="round"/>
<path d="M69.6392 122.948C70.704 121.954 72.0398 121.297 73.4775 121.062C74.9153 120.827 76.3905 121.023 77.7167 121.627C79.0428 122.23 80.1603 123.213 80.9278 124.451C81.6954 125.689 82.0785 127.127 82.0287 128.583C81.979 130.04 81.4986 131.448 80.6484 132.631C79.7981 133.814 78.6162 134.718 77.2519 135.23C75.8877 135.741 74.4026 135.836 72.9842 135.504C71.5658 135.171 70.278 134.425 69.2835 133.36C68.6231 132.653 68.1084 131.823 67.7689 130.917C67.4293 130.011 67.2716 129.047 67.3046 128.08C67.3376 127.114 67.5608 126.163 67.9614 125.282C68.3619 124.401 68.9321 123.608 69.6392 122.948V122.948Z" stroke="#2522A7" stroke-width="0.754" stroke-linecap="round" stroke-linejoin="round"/>
<path d="M87.746 23.5227C87.746 25.4879 87.1633 27.4091 86.0714 29.0431C84.9796 30.6772 83.4277 31.9507 81.6121 32.7028C79.7964 33.4549 77.7985 33.6517 75.871 33.2683C73.9435 32.8849 72.173 31.9385 70.7834 30.5488C69.3937 29.1592 68.4474 27.3887 68.064 25.4612C67.6806 23.5337 67.8774 21.5358 68.6294 19.7201C69.3815 17.9045 70.6551 16.3526 72.2891 15.2608C73.9232 14.1689 75.8443 13.5862 77.8095 13.5862C80.4445 13.5873 82.9713 14.6345 84.8345 16.4977C86.6977 18.361 87.7449 20.8877 87.746 23.5227Z" fill="#2522A7"/>
</svg>
